<?xml version="1.0" encoding="UTF-8"?>
<svg version="1.1" viewBox="0 0 1600 1000" width="1200" height="750" xmlns="http://www.w3.org/2000/svg">
<path transform="translate(0)" d="m0 0h1600v1e3h-1600z" fill="#E1BEDA"/>
<path transform="translate(1383,279)" d="m0 0 14 1 40 4 11 3 13 5 26 7 16 6 32 16 10 7 6 8 8 16 5 6 11 9 14 15 11 11v607h-1600v-415l20 1 4 1h35l8 6 3 3v3l5 2 18 12h11l24-7 15-7 21-12h3l1 5h2l1-2 2 4 2 1 1-6h3v-2l6-2h2l2-4h2l1 3 9-2 4-3 6-29 1-12 6 2 11 4h22l27 9 4 1 1 3v8l-26 1-5 3-2 3-1 13 7-3 10-6 9 1 12 7 39 1 7 2h16l19-4 16-4h28l24 3v2l-23 11-22 11-28 11-26 8-38 10-12 2-7-1-32 7-7 1 9 2h7l4-1 4 7h4l8-7 3-4h2l2 11 2 2 5 1h8v-6l14 3h12l12 4h10l24-7 10-3 16-5 10-3 16-8 13-6 11-5 11-4 9-4 11-3 9-3 25-5 38-7 9-1 6-5h2l1 2h3l1-2h2l1 2 5-1 1 1h8l1-1h8l5 2v-2l10 3 3 1 1-3 5 1h4l-21-5-18-5-15-5-16-4-15-4h-12l-21 5-15 5h-14l-2-2 15-7 16-8 11-8 4-3h21l14 2 14 5 10 3 30 11 24 7 18 4 14 1v2l-5 3-10 4-13 5 9-2v5l5-2v2l3-2h5l4 1 3-5 4 1h4 4 4 4l3-3h6l6 3v2l-12 7 13-1-5 4-17 17-8 7-18 18-8 7-7 7-13 10-18 11-17 8-7 2 2-4 13-16 10-15 5-10 1-5-11 6-19 11-35 1-11 7-7 6h-11l-7-1-18-1 5-7h5l4-9 6 3v-7l4 2 8 2 2-5 17-1v2l4-1 6 1 5-1 1-4h8l5 6 2 1v-4h4v-3l3 1 2 2h2v-2h2l1 2 19-11 13-6h2l-2 4-5 3 4-2 16-9 27-14 7-3-12 2-12-1-8-2-12 1-84 18-11 3-10 9-10 4h-18l-11-1-6 2v2l-14 8 17 1 8 4 5 3-2 4-12 10-19 14-14 7-18 5-21 3-13 1-3 1 17 10 7 4 7-1 16-6 5-1h11l28 9 7 4-2 2-47 13-16 8-19 12-37 25-22 15-40 28-17 12-1 2 3 6v4l5 1v2l5 2 13 8v2h3v2l5 2 6 5 3 1v2l5 2 18 14 12 9 14 11 8 7 12 17 7 6 7 4 8 2 9 1h16l21-4 33-7 15-5 20-12 11-5h13l-1 7-6 9-15 14-10 8-4 1v2l11-5 45-16 39-15 21-10 18-12 13-13 8-5 3-1h14l14 4h5l19-11 9-11 9-10 11-14 9-11-22-1-16 5-24 11-16 4-25 3-29 2-35 7v3l4 1 3 4-3 3h-3v2h-3v2l-7 3h-11l-1-4 4-5 8-5 5-2-10 2h-12l-2 3-22 3-13 6-4 1h-9l-5-3 2-10-14 1-6 3-12-1-9-2h-29l-22 4-34 8-5 1 3-4h3v-2l12-4 13-6 11-4 11-5 13-5 22-10 10-4 12-6 10-4 16-8 19-10 13-10 10-9 12-8 8-4 4-5v-5l-7-6-16-9-8-7-8-11-6-8 2-4 6-6 33 2 9-3 11-8 16-15 7-8 11-9 33-22 26-17 17-11 16-11 5-4h2l-1 4-7 12 5-2 11-1 9-4 6-5 9 1 3 3v12l-3 13-6 9-11 12-7 8 16-8 5 2 15 14 7 9v5l-9 12-11 12-13 10-7 6-7 13-8 10-7 6-12 9-4 5 1 3 20 8 2 1v2l5-3 7-6 13-4 21-2 6-3 5-5 4-1 6 3 5 7 3 11 9 3h10l9-3 8-8 8-10 11-12 9-8 5-2 20-4 12-5 7-6 6-22 17-11 14-7 9-3 8 1 2 1 3-10 5-9 7-6 2-5 1-8h2l-5-23-2-22v-11l2-14 4-10 7-10 9-11 8-8 7-8 16-16 8-7 9-9 11-9 11-10 12-9 4-2-2 5-12 22-13 23-20 38-7 16-11 15-7 16-6 20-1 6-2 32-4 22-4 12-14 12-9 7-13 10-12 9-19 14-14 10-7 7-3 6 2 8 4-1 4-12 1-7h2l1 4h4l1 8 3-4 6-18h4l3 24 1 5h3v-22l1-9 3-3 3 9 3-16h2l3 10 3-15 3-3 1 1 1 8v27l4-2 1-26h2l4 11h5l4-10 2 1v3h2v-3l3 1 1 4 7 2 3-2 1-9 5-1 2 3v3l15-7h4l7 21 13 30 11 23 2-9 9-52 4-26v-16l-3-13 1-11 12-31 2-9-1-108-1-16 8-5 11-4 12-5 2-1h11l10 4 6-1 3-1 2-4 11-15 17-29 6-9 3-1 3 8v11l-7 63-6 45-8 51v5l11-11 7-8 12-12 7-8 9-10 10-14 2-7 2-22 3-81 1-39v-40l-2-17-4-15-7-19-8-18 1-9 3-10-1-3h27l36 3 15 2h9l22-10 24-8z" fill="#406BAD"/>
<path transform="translate(1152)" d="m0 0h448v393l-7-6-14-14-5-6-11-9-5-6-10-19-5-6-17-10-33-15-24-7-14-4-13-5-13-2-32-3-14-1-17 4-22 8-17 8h-9l-25-3-26-2-27-1 2 4-4 13 1 8 8 17 9 27 2 11 1 11v40l-2 70-2 50-2 22-3 9-11 14-13 14-7 8-12 12-7 8-7 6 1-13 9-57 9-75 2-20v-11l-2-7h-3l-2 5-10 16-10 17-11 15-5 5-3 2-8-1-6-3h-11l-11 5-12 4-9 5 1 16 1 108-3 12-11 28-1 11 3 13v16l-9 56-6 33-3-4-12-25-13-31-4-13v-3l-8 3-9 4h-2l-2-6-4 1-1 9-4 3-5-2-6-6v3h-2l-1-3-5 10h-5l-4-9v-3h-2v26l-2 2h-3l-1-27-1-8-2 2-3 15-2 1-2-7v-4h-2l-2 19-2-3-2-8-2 2-1 9-1 22h-3l-2-5-3-24h-2l-6 18-3 5-2-1v-8h-4l-1-4h-2v7l-4 12-2 2-4-1-1-8-2-1h2l2-5 9-9 17-12 40-30 12-10 10-8 5-16 3-18 2-32 4-17 7-19 7-12 8-11 8-18 11-21 12-22 15-27 7-13-11 8-10 9-11 9-13 12-7 7-8 7-15 15-7 8-9 10-7 10-5 10-2 8-1 9v11l2 22 4 20v3h-2v8l-3 6-7 6-6 13-2 5-10-1-16 6-20 12-3 2-6 22-8 7-12 5-23 5-8 6-10 10-9 11-9 10-6 4-5 1h-10l-9-3-3-9-4-8-4-3-4-1-5 3-6 5-3 1-21 2-13 4-9 8h-3v-2l-9-3-13-5-2-4 7-8 15-11 7-8 8-14 7-8 11-8 8-7 7-8 8-11-1-7-11-12-12-10-6 2-10 5h-2l2-4 12-12 6-8 4-8 2-10v-12l-5-3h-6l-9 7-6 2-11 1-5 1 2-5 6-11-17 12-49 32-30 20-9 7-10 9-7 8-13 12-11 7-7 2-17-1-16-1-7 7 2 5 8 10 6 8 10 7 14 8 5 5-1 7-7 6-8 4-14 10-7 7-13 9-23 12-16 8-7 3-9 4-10 4-22 10-13 5-11 5-18 7-10 4-4 2h-4v2l-5 3 42-10 18-3h29l15 3 9-1 3-2h14l-2 10 5 2h9l10-4 7-3 22-3 2-3h12l11-2-3 3-8 4-5 4-1 5h11l7-2v-2h3v-2l5-3-3-4-3-1v-3l23-6 12-2 39-3 25-4 13-5 17-8 16-5 23 1-6 8-11 14-12 14-10 12-16 9-3 2-8-1-11-3h-14l-10 5-3 3h-2l-2 4-8 8-19 12-19 9-42 16-42 15-9 4h-2v-2l9-6 12-11 8-7 6-10 1-5-13 1-16 8-15 9-15 5-38 8-16 3h-16l-13-2-7-3-9-6-7-8-9-13-13-11-11-8-18-14-13-9v-2l-4-1-10-7v-2h-3v-2l-5-2-13-8v-2l-5-1-4-11 10-8 16-11 20-14 23-16 12-8 43-29 22-13 10-4 37-10 8-3-12-5-22-7h-11l-14 4-9 4h-5l-23-13-3-3 18-2 21-3 18-5 14-7 16-12 10-8 6-5 1-2-5-2-8-4-19-1 4-3 10-6h2v-2l6-3 11 1h18l10-4 10-9 16-4 79-17 12-1 15 3 11-1 8-1-4 3-23 11-22 12-9 5v-2l8-5 1-2-21 10-13 8-1-3h-2v2l-3 1-4-4v3h-4v4l-4-2-3-4-8-1-1 4-5 2-10-1v-2l-3 1-14 1-2 4-8-1-4-3v7l-6-3-2 8-2 2h-5l-4 5 17 1 7 1h11l14-11 4-2 35-1 23-13 4-3h3l-1 7-9 16-11 14-10 13 20-9 16-9 11-8 11-9 10-10 8-7 18-18 8-7 11-11 3-2-1-2 7-1v-5l6-9 10-9 19-13-3-1 1-4 5-5h2l-1-2-43-10-32-7-36-2-7-2v-4l-21-1-76-2-158-6-10-1v-1l39-1 91-6 70-5 44-4 34-4 21-4 21-7 15-8 8-7 3-5 5-29 4-11 4-5 5-3 10-2 33-2h41l53 6 35 2h86l18-2 15 1 31 4 16 1 23-11 16-6 4-1v-3l2-1h8l17 5 10 3h17l8-3 5-8 1-2v-14l-4-8-8-4-5-3-3-3-9-3-7-1-9-3-14-3-6-2-7-1-11-2-9-3-19-5h-8l-8-2v-2l-12-2-9-3-38-7-20-4-2-1v2l-28-5-4-3-9-1-4-2-31-6-20-3-19-2-10-2-2 1-2-1v-2l-9-2-12-3-24-8-16-4-15-7-5-1-2-4-6-2-10-7-8-8-4-9-1-11 3-15 3-10 9-16 6-6 1-3 5-4 7-8 8-7 20-9 21-7 24-5 38-9 18-2 8-2 39-2 18-2 16-5 18-8 14-7 10-8 11-10 13-8 8-4 28-10 23-8 14-8 10-8 16-15 6-6 3-7 4-8z" fill="#C9BEDE"/>
<path transform="translate(1383,279)" d="m0 0 14 1 40 4 11 3 13 5 26 7 16 6 32 16 10 7 6 8 8 16 5 6 11 9 14 15 11 11v607h-369v-28l5-139v-9l-13 30-23 54-10 23-5-1-3-4-7-19-5-23v-20l17-158 5-62 2-7 11-11 7-8 12-12 7-8 9-10 10-14 2-7 2-22 3-81 1-39v-40l-2-17-4-15-7-19-8-18 1-9 3-10-1-3h27l36 3 15 2h9l22-10 24-8z" fill="#918ABA"/>
<path transform="translate(0)" d="m0 0h1e3l-5 5-14 10-21 13-22 13-18 10-25 13-20 9-20 8-38 14-43 15-24 10-20 10-27 18-17 12-17 11-18 10-21 10-28 9-29 6-28 3h-57l-26-2-34-4h-9l2 16v16l-6 10-7 6-12 6-19 6-15 3h-24l-37-6-39-9-54-14-65-19-20-5 24 13 24 15 14 10 19 14 10 5 32 10 42 15 24 9 26 11 19 9 12 8 10 9 5 8 1 2v9l-3 2h-12l-29-9-5-1 5 10 10 14 2 4v15l-1 2-8 2-19 1h-19l-67-2-48-3-45-4-27-4-36-8-72-18-13-3z" fill="#E5CEE5"/>
<path transform="translate(1237,316)" d="m0 0 2 3 8 17 9 27 2 11 1 11v40l-2 70-2 50-2 22-3 9-11 14-13 14-7 8-12 12-7 8-7 6 1-13 9-57 9-75 2-20v-11l-2-7h-3l-2 5-10 16-10 17-11 15-5 5-3 2-8-1-6-3h-11l-11 5-12 4-9 5 1 16 1 108-3 12-11 28-1 11 3 13v16l-9 56-6 33-3-4-12-25-13-31-4-13v-3l-8 3-9 4h-2l-2-6-4 1-1 9-4 3-5-2-6-6v3h-2l-1-3-5 10h-5l-4-9v-3h-2v26l-2 2h-3l-1-27-1-8-2 2-3 15-2 1-2-7v-4h-2l-2 19-2-3-2-8-2 2-1 9-1 22h-3l-2-5-3-24h-2l-6 18-3 5-2-1v-8h-4l-1-4h-2v7l-4 12-2 2-4-1-1-8-2-1h2l2-5 9-9 17-12 40-30 12-10 10-8 5-16 3-18 2-32 4-17 7-19 7-12 8-11 8-18 11-21 12-22 15-27 7-13-11 8-10 9-11 9-13 12-7 7-8 7-15 15-7 8-9 10-7 10-5 10-2 8-1 9v11l2 22 4 20v3h-2v8l-3 6-7 6-6 13-2 5-10-1-16 6-20 12-3 2-6 22-8 7-12 5-23 5-8 6-10 10-9 11-9 10-6 4-5 1h-10l-9-3-3-9-4-8-4-3-4-1-5 3-6 5-3 1-21 2-13 4-9 8h-3v-2l-9-3-13-5-2-4 7-8 15-11 7-8 8-14 7-8 11-8 8-7 7-8 8-11-1-7-11-12-12-10-6 2-10 5h-2l2-4 12-12 6-8 4-8 2-10v-12l-5-3h-6l-9 7-6 2-11 1-5 1 2-5 6-11-17 12-49 32-30 20-9 7-10 9-7 8-13 12-11 7-7 2-17-1-16-1-7 7 2 5 8 10 6 8 10 7 14 8 5 5-1 7-7 6-8 4-14 10-7 7-13 9-23 12-16 8-7 3-9 4-10 4-22 10-13 5-11 5-18 7-10 4-4 2h-4v2l-5 3 42-10 18-3h29l15 3 9-1 3-2h14l-2 10 5 2h9l10-4 7-3 22-3 2-3h12l11-2-3 3-8 4-5 4-1 5h11l7-2v-2h3v-2l5-3-3-4-3-1v-3l23-6 12-2 39-3 25-4 13-5 17-8 16-5 23 1-6 8-11 14-12 14-10 12-16 9-3 2-8-1-11-3h-14l-10 5-3 3h-2l-2 4-8 8-19 12-19 9-42 16-42 15-9 4h-2v-2l9-6 12-11 8-7 6-10 1-5-13 1-16 8-15 9-15 5-38 8-16 3h-16l-13-2-7-3-9-6-7-8-9-13-13-11-11-8-18-14-13-9v-2l-4-1-10-7v-2h-3v-2l-5-2-13-8v-2l-5-1-4-11 10-8 16-11 20-14 23-16 12-8 43-29 22-13 10-4 37-10 8-3-12-5-22-7h-11l-14 4-9 4h-5l-23-13-3-3 18-2 21-3 18-5 14-7 16-12 10-8 6-5 1-2-5-2-8-4-19-1 4-3 10-6h2v-2l6-3 11 1h18l10-4 10-9 16-4 79-17 12-1 15 3 11-1 8-1-4 3-23 11-22 12-9 5v-2l8-5 1-2-21 10-13 8-1-3h-2v2l-3 1-4-4v3h-4v4l-4-2-3-4-8-1-1 4-5 2-10-1v-2l-3 1-14 1-2 4-8-1-4-3v7l-6-3-2 8-2 2h-5l-4 5 17 1 7 1h11l14-11 4-2 35-1 23-13 4-3h3l-1 7-9 16-11 14-10 13 20-9 16-9 11-8 11-9 10-10 8-7 18-18 8-7 11-11 3-2-1-2 7-1v-5l6-9 10-9 19-13-3-1 1-4 5-5h2l-1-2-43-10-32-7-36-2-7-2v-4l-21-1-76-2-158-6-10-1v-1l39-1 91-6 70-5 44-4 34-4 21-4 21-7 15-8 8-7 3-5 5-29 4-11 4-5 5-3 10-2 33-2h41l53 6 35 2h86l18-2 15 1 31 4 16 1 23-11 16-6h16l13 4 12 8 15 12 13 6 18 6 22 6 1-12 7-36 8-39 5-30v-15z" fill="#7088C2"/>
<path transform="translate(212,538)" d="m0 0 6 2 11 4h22l27 9 4 1 1 3v8l-26 1-5 3-2 3-1 13 7-3 10-6 9 1 12 7 39 1 7 2h16l19-4 16-4h28l24 3v2l-23 11-22 11-28 11-26 8-38 10-12 2-7-1-32 7-7 1 9 2h7l4-1 4 7h4l8-7 3-4h2l2 11 2 2 5 1h8v-6l14 3h12l12 4h10l24-7 10-3 16-5 10-3 16-8 13-6 11-5 11-4 9-4 11-3 9-3 25-5 38-7 9-1 6-5h2l1 2h3l1-2h2l1 2 5-1 1 1h8l1-1h8l5 2v-2l10 3 3 1 1-3 5 1h4l-21-5-18-5-15-5-16-4-15-4h-12l-21 5-15 5h-14l-2-2 15-7 16-8 11-8 4-3h21l14 2 14 5 10 3 30 11 24 7 18 4 14 1v2l-5 3-10 4-13 5 9-2v5l5-2v2l3-2h5l4 1 3-5 4 1h4 4 4 4l3-3h6l6 3v2l-12 7 13-1-5 4-17 17-8 7-18 18-8 7-7 7-13 10-18 11-17 8-7 2 2-4 13-16 10-15 5-10 1-5-11 6-19 11-35 1-11 7-7 6h-11l-7-1-18-1 5-7h5l4-9 6 3v-7l4 2 8 2 2-5 17-1v2l4-1 6 1 5-1 1-4h8l5 6 2 1v-4h4v-3l3 1 2 2h2v-2h2l1 2 19-11 13-6h2l-2 4-5 3 4-2 16-9 27-14 7-3-12 2-12-1-8-2-12 1-84 18-11 3-10 9-10 4h-18l-11-1-6 2v2l-14 8 17 1 8 4 5 3-2 4-12 10-19 14-14 7-18 5-21 3-13 1-3 1 17 10 7 4 7-1 16-6 5-1h11l28 9 7 4-2 2-47 13-16 8-19 12-37 25-22 15-40 28-17 12-1 2 3 6v3l-20-8-7-1 4 8 8 8 9 14 12 25 17 42 13 35 7 20v2h-339v-415l20 1 4 1h35l8 6 3 3v3l5 2 18 12h11l24-7 15-7 21-12h3l1 5h2l1-2 2 4 2 1 1-6h3v-2l6-2h2l2-4h2l1 3 9-2 4-3 6-29z" fill="#406BAE"/>
<path transform="translate(1308,339)" d="m0 0 5 3 7 7 8 14 7 16 9 28 7 28 3 24 5 54 9 126 4 67v6l29-12 9-3h8l11 4 11 5v2l4 1 10 7 8 8v2h2l4 6 1 8 19 3 6 3v2h2v2h3v2l3 1v2l5 2 9 6 11 3h14l28-7h24l7 1v240h-358l3-9 12-23 6-11 9-17 1-3v-28l-1-25-10-12-4-8-4-22-2-5-6-1-4-1-4-9v-10l5-31 4-8-2-4-6-7 3-3 9-1-1-12v-14l2-2h7l1-6h12v-11l-2-6v-5l4-3 5 1 1 1 2-3h15l-1-13-2-78h1l7 40 7 31 5 19 1 2 22 7 21 3-8-86-9-94-4-44-5-14-8-15-9-12-7-8-7-5 1-24 3-58 1-11z" fill="#3F6AAD"/>
<path transform="translate(1515)" d="m0 0h85v393l-7-6-14-14-5-6-11-9-5-6-10-19-5-6-2-2-6-7-10-10-7-8-9-9-7-8-17-17v-2l-4-2-10-9-17-9-22-8-10-2h-24l-20 4-31 9-50 16-30 7-19 3-9 1h-65l-36-3-25-5-18-6-14-7-12-9-9-11 1-10 5-8 9-6 10-4 34-8 29-10 22-9-46-1-30-2 4-2 30-8 37-12 28-11 26-12 36-15 36-14 25-9 37-14 29-12 44-22 23-11 32-16 25-12z" fill="#BAAED4"/>
<path transform="translate(1237,316)" d="m0 0 2 3 8 17 9 27 2 11 1 11v40l-2 70-2 50-2 22-3 9-11 14-13 14-7 8-12 12-7 8-7 6 1-13 9-57 9-75 2-20v-11l-2-7h-3l-2 5-10 16-10 17-11 15-5 5-3 2-8-1-6-3h-11l-11 5-12 4-9 5 1 16 1 108-3 12-11 28-1 11 3 13v16l-9 56-6 33-3-4-12-25-13-31-4-13v-3l-8 3-9 4h-2l-2-6-4 1-1 9-4 3-5-2-6-6v3h-2l-1-3-5 10h-5l-4-9v-3h-2v26l-2 2h-3l-1-27-1-8-2 2-3 15-2 1-2-7v-4h-2l-2 19-2-3-2-8-2 2-1 9-1 22h-3l-2-5-3-24h-2l-6 18-3 5-2-1v-8h-4l-1-4h-2v7l-4 12-2 2-4-1-1-8-2-1h2l2-5 9-9 17-12 40-30 12-10 10-8 5-16 3-18 2-32 4-17 7-19 7-12 8-11 8-18 11-21 12-22 15-27 7-13-11 8-10 9-11 9-7 6-24 3-24 7-28 10-4 2-3-1 1-2h-15l-28 11-21 10-16 10-5 4-11 14-9 11-26 8-11 5-22 8-11 6h-2l1-8 5-12 10-14 17-7 17-9 16-12 20-18 9-10 6-11-11 1 4-3 23-11v-1l-22 4-28 6-20 6-6 4-29 1-14 2-11 4-29 14-12 7-5 3-6-2-38-9-32-7-36-2-7-2v-4l-21-1-76-2-158-6-10-1v-1l39-1 91-6 70-5 44-4 34-4 21-4 21-7 15-8 8-7 3-5 5-29 4-11 4-5 5-3 10-2 33-2h41l53 6 35 2h86l18-2 15 1 31 4 16 1 23-11 16-6h16l13 4 12 8 15 12 13 6 18 6 22 6 1-12 7-36 8-39 5-30v-15z" fill="#BAA0C9"/>
<path transform="translate(1211,454)" d="m0 0 2 1 2 7v11l-7 63-6 45-8 51-7 84-16 148v20l5 23 7 19 4 4 3 1 3-9 42-98 2-1-1 36-5 141h-291l1-18 1-14v-26l-2-16-4-11-7-11-11-13-11-12-15-15-8-7-10-9-3-2 1-10 6-26 2-2 3 9v4l8-7 1-15 5-5 2-6 2 4 2 7 2 1 1-8 4-15 2 3 2 5 2-12 4 5 4 1v2h3l2 7 4-1 4-12 1-7h2l1 4h4l1 8 3-4 6-18h4l3 24 1 5h3v-22l1-9 3-3 3 9 3-16h2l3 10 3-15 3-3 1 1 1 8v27l4-2 1-26h2l4 11h5l4-10 2 1v3h2v-3l3 1 1 4 7 2 3-2 1-9 5-1 2 3v3l15-7h4l7 21 13 30 11 23 2-9 9-52 4-26v-16l-3-13 1-11 12-31 2-9-1-108-1-16 8-5 11-4 12-5 2-1h11l10 4 6-1 3-1 2-4 11-15 17-29 6-9z" fill="#22315B"/>
<path transform="translate(652,379)" d="m0 0h38l44 5 77 11 46 8 29 7 23 6 15 2 10-1v4l-2 1h-31l-35-2-53-6h-41l-33 2-12 3-5 5-4 8-3 14-3 19-6 8-11 8-15 7-20 6-24 4-48 5-49 4-107 7-28 2-29 1 58 2 100 4 76 2 21 2v4l7 1 36 2 46 10 29 7 1 3-7 6-1 3 4 1-17 12-14 12-4 7-1 5-9 3-9 1 3-3 8-5h2l-1-2-5-2h-6l-4 4-6-2-4 2-4-3-1 2-4-2-2 5-4 1-1-1h-5l-3 1v-2l-5 2v-5l-7 3-4-1 20-8 8-4h2v-2h-14l-26-6-33-11-18-7-17-5-10-2-6-1h-21l-13 10-15 8-16 7v1h14l19-6 17-4h12l25 6 27 9 26 6 9 3v1h-6l-2-1-1 2v-2h-2l-1 2-6-1-7-3v2l-5-1h-8l-1 1h-8l-5-1h-3l1-2h-2l-1 3-4-1v-2l-8 6-26 4-31 6-23 5-8 3-12 4-8 4-13 5-9 4-17 9-23 8-8 2-19 6-15 4h-10l-12-4h-12l-12-3-2-1 1 6-1 1h-8l-6-2-2-2-1-4v-7h-2l-2 4-7 7-5 2-5-6v-3l-4 2h-7l-9-2-1-2 17-3 23-5 10 1 36-9 28-8 25-9 20-9 34-17h3v-2l-14-1-10-1h-28l-16 4-19 4h-16l-7-2-39-1-12-7-9-1-13 8h-4v-13l5-6 3-1h26l-1-11-6-1-25-8h-22l-13-5-3-1-1 11-4 21-3 9-6 4h-7l-1 3v-6h-2l-2 5-8 1v2h-3l-1 6-3-1-2-2h-2l-1-5-12 6-18 10-13 5-20 6h-11l-21-14-2-1-3-5-8-6h-35l-4-1-15-1-5-1v-77l48-2 26-3h32l23 5 36 9 6 1h22l18-4 12-5 16-9 15-9 13-6 14-4 23-3 54-4 77-4 23-1h40l48 5 13 1h19l14-3 10-5 3-5 3-19 3-22 5-16 5-9 6-7 9-6 9-3z" fill="#D9B2D3"/>
<path transform="translate(1386,280)" d="m0 0h11l40 4 11 3 13 5 26 7 16 6 32 16 10 7 6 8 8 16 5 6 11 9 14 15 11 11v231l-9-2-37-14-31-13-33-15-27-14-14-9-11-8-12-11-7-7-12-16-15-25-17-32-11-24-14-35-6-19v-13l5-17 12-25 11-21 9-15 4-6z" fill="#406BAE"/>
<path transform="translate(1383,279)" d="m0 0h7l-4 1-1 5-9 14-12 22-12 24-6 18-1 4v13l9 27 12 29 16 34 12 22 14 23 10 13 9 10 7 7 12 9 19 12 33 17 34 15 30 12 24 9 14 5v136h-31l-28 7h-14l-13-4-10-7-5-4v-2h-3v-2h-2v-2l-12-3-13-3-3-10-2-4h-2l-7-8-5-4-7-5-3-1v-2l-10-3-8-4-4-1h-8l-19 7-17 7h-2l-1-6-5-82-9-124-5-51-3-19-7-26-11-33-10-19-9-10-6-3-5-5-24-13-17-11 2-3-9-3-3-3-2 1-8-6v-2h27l36 3 15 2h9l22-10 24-8z" fill="#8083BA"/>
<path transform="translate(1461,756)" d="m0 0h3l5 14 7-5 4 4 2 4h4l3 7 1 10 3 4 3-1 9-14 2 1 4 15 1 1h8l7 6h8l5-4 3-3 4 1 4 9 8 2v-2l3-1 2 3v3l7-2 2-4 4-1 11 13 9 7 3 2v175h-288l6-7 11-9 11-10 11-9 17-14 11-9 14-11 19-14 13-7 6-2 4-4v-6l-6-9-7-6-10-6-20-11-8-4-12-7-8-9-2-6 1-5 4-3 15-1v-9l7-8 10-5 6-5 6 1 11 7 3 1h13l6-8 3-1 1-15 7-19 4-11z" fill="#21315B"/>
<path transform="translate(0)" d="m0 0h634l-5 4-14 8-20 9-29 11-36 12-30 9-40 10-31 5-15 1h-13l-28-2-34-4-16-1h-15l-20 2-20 5-36 12-17 5-10 1h-13l-38-2-21-3-17-4-30-10-20-8-20-9-28-14-17-10-1-1z" fill="#E1BEDA"/>
<path transform="translate(1057,511)" d="m0 0h9l-6 7-17 16-12 12-7 8-9 10-7 10-5 10-2 8-1 9v11l2 22 4 20v3h-2v8l-3 6-7 6-6 13-2 5-10-1-16 6-20 12-3 2-6 22-8 7-12 5-23 5-8 6-10 10-9 11-9 10-6 4-5 1h-10l-9-3-3-9-4-8-4-3-4-1-5 3-6 5-3 1-21 2-13 4-9 8h-3v-2l-9-3-13-5-2-4 7-8 15-11 7-8 8-14 7-8 11-8 8-7 7-8 12-16 10-14 16-23 9-12 7-10 13-18 13-17 5-7 6-7 13-16 5-5 7-6 22-12 28-12 11-4h15v3l9-3 28-10 21-6z" fill="#9B97C8"/>
<path transform="translate(1211,454)" d="m0 0 2 1 2 7v11l-7 63-6 45-8 51-7 84-16 148v20l5 23 6 16-1 4-9-6-7-8-6-10-10-8-15-6-12-12-12-16-10-15-12-22-2-4 1-13 9-52 4-26v-16l-3-13 1-11 12-31 2-9-1-108-1-16 8-5 11-4 12-5 2-1h11l10 4 6-1 3-1 2-4 11-15 17-29 6-9z" fill="#3F4F8D"/>
<path transform="translate(1251,761)" d="m0 0h16l25 11 30 15 15 10 18 14 15 10 9 4 4 1-1 5-3 1-12 1-4 3 1 8 6 8 10 7 16 8 10 6 12 6 10 8 6 7 2 4v6l-5 5-12 5-11 7-16 12-14 11-13 11-10 8-13 11-11 9-11 10-8 7h-70l3-9 12-23 6-11 9-17 1-3v-28l-1-25-10-12-4-8-4-22-2-5-6-1-4-1-4-9v-10l5-31 4-8-2-4-6-7 3-3z" fill="#6F88C2"/>
<path transform="translate(755,832)" d="m0 0 23 1-6 8-11 14-12 14-10 12-16 9-3 2-8-1-11-3h-14l-10 5-3 3h-2l-2 4-8 8-19 12-19 9-42 16-42 15-9 4h-2v-2l9-6 12-11 8-7 6-10 1-5-13 1-16 8-15 9-15 5-38 8-16 3h-16l-13-2-7-3-9-6-7-8-9-13-13-11-8-6 4-4 11-8 13-12 11-4 39-9 13-2h29l15 3 9-1 3-2h14l-2 10 5 2h9l10-4 7-3 22-3 2-3h12l11-2-3 3-8 4-5 4-1 5h11l7-2v-2h3v-2l5-3-3-4-3-1v-3l23-6 12-2 39-3 25-4 13-5 17-8z" fill="#8493C9"/>
<path transform="translate(269,846)" d="m0 0h7l15 6 10 5v2l5 2 13 8v2h3v2l5 2 6 5 3 1v2l5 2 18 14 12 9 14 11 8 7 12 17 7 6 7 4 8 2 9 1h16l21-4 33-7 15-5 20-12 11-5h13l-1 7-6 9-15 14-10 8-4 1v2l11-5 45-16 39-15 21-10 15-10 3 1-7 10-6 13-9 29-10 38-27 1h-265l-16-44-15-38-13-30-10-19-8-10-7-8z" fill="#12437F"/>
<path transform="translate(1057,511)" d="m0 0h9l-6 7-17 16-12 12-7 8-9 10-7 10-5 10-2 8-1 9v11l2 22 4 20v3h-2v8l-3 6-7 6-6 13-2 5-10-1-16 6-20 12-3 2-6 22-8 7-12 5-23 5-8 6-10 10-9 11-9 10-6 4-5 1h-10l-4-5 3-12 2-3h2l2-5 9-11 9-10 8-12 4-5 3-5 1-9-3-1 5-1 13-29 11-22 13-23 15-23 10-16 19-28 15-22 13-17 3-3 26-10 25-8 14-3z" fill="#918ABB"/>
<path transform="translate(212,538)" d="m0 0 6 2 11 4h22l27 9 4 1 1 3v8l-26 1-5 3-2 3-1 13 7-3 10-6 9 1 12 7 39 1 7 2h16l19-4 16-4h28l24 3v2l-23 11-22 11-28 11-26 8-38 10-12 2-7-1-32 7-12 2-16 8-4 1h-11l-26-6-42-13-14-4-19-14-1-1-9-1v-1l14-2 20-6 15-7 21-12h3l1 5h2l1-2 2 4 2 1 1-6h3v-2l6-2h2l2-4h2l1 3 9-2 4-3 6-29z" fill="#8593C9"/>
<path transform="translate(523,549)" d="m0 0h21l14 2 14 5 10 3 30 11 24 7 18 4 14 1v2l-5 3-10 4-13 5 9-2v5l5-2v2l3-2h5l4 1 3-5 4 1h4 4 4 4l3-3h6l6 3v2l-12 7 13-1-5 4-17 17-8 7-18 18-8 7-7 7-13 10-18 11-17 8-7 2 2-4 13-16 10-15 5-10 1-5-11 6-19 11-35 1-11 7-7 6h-11l-7-1-18-1 5-7h5l4-9 6 3v-7l4 2 8 2 2-5 17-1v2l4-1 6 1 5-1 1-4h8l5 6 2 1v-4h4v-3l3 1 2 2h2v-2h2l1 2 19-11 13-6h2l-2 4-5 3 4-2 16-9 27-14 7-3-12 2-12-1-8-2-12 1-84 18-11 3-10 9-10 4h-18l-11-1-6 2v2l-14 8v2l-9 3-24 13-25 14-18 10-6 3-5-1-12-11-9-9v-2l21-6 27-6 19-7 36-16 12-7-36 13-12 4-3-1 18-11h2v-5l28-8 2-1-13-4-6 1-12 7h-10l1-2 12-5 5-3h3l1-3 8-4 10-4 7-2-1-2 38-8 33-6 9-1 6-5h2l1 2h3l1-2h2l1 2 5-1 1 1h8l1-1h8l5 2v-2l10 3 3 1 1-3 5 1h4l-21-5-18-5-15-5-16-4-15-4h-12l-21 5-15 5h-14l-2-2 15-7 16-8 11-8z" fill="#416BAE"/>
<path transform="translate(1237,316)" d="m0 0 2 3 8 17 9 27 2 11 1 11v40l-2 70-2 50-2 22-3 9-11 14-13 14-7 8-12 12-7 8-7 6 1-13 9-57 9-75 2-20v-11l-2-7-21-6-28-10-9-1-75 1-19 7-15 6-41 13-8 2-1-2 22-13 27-15 36-18 17-8 9-3h16l13 4 12 8 15 12 13 6 18 6 22 6 1-12 7-36 8-39 5-30v-15z" fill="#CD9DBD"/>
<path transform="translate(24,507)" d="m0 0h19l22 4 26 8 23 11 14 9 10 8 7 6 6 8 2 1 2-4 3-3 9 1h20l12-6 11-9h2l1-2-1 11-4 21-3 9-6 4h-7l-1 3v-6h-2l-2 5-8 1v2h-3l-1 6-3-1-2-2h-2l-1-5-12 6-18 10-13 5-20 6h-11l-21-14-2-1-3-5-8-6h-35l-4-1-15-1-5-1v-77z" fill="#BAA0C9"/>
<path transform="translate(1300,435)" d="m0 0 4 1 10 9 11 15 9 17 4 12 10 107 10 104v13h-10l-14-3-19-6-3-6-8-33-7-36-4-31-2-23v-35l2-34 2-48 2-17z" fill="#DFA1B9"/>
<path transform="translate(639,610)" d="m0 0 9 1 11 2 11-1 8-1-4 3-23 11-22 12-9 5v-2l8-5 1-2-21 10-13 8-1-3h-2v2l-3 1-4-4v3h-4v4l-4-2-3-4-8-1-1 4-5 2-10-1v-2l-3 1-14 1-2 4-8-1-4-3v7l-6-3-2 8-2 2h-5l-4 5 17 1 7 1h11l14-11 4-2 35-1 23-13 4-3h3l-1 7-9 16-11 14-13 16-11 13-10 2-9 4-24 5-29 8-8 1-12-5-22-7h-11l-14 4-9 4h-5l-23-13-3-3 18-2 21-3 18-5 14-7 16-12 10-8 6-5 1-2-5-2-8-4-19-1 4-3 10-6h2v-2l6-3 11 1h18l10-4 10-9 16-4 79-17z" fill="#B8AED4"/>
<path transform="translate(1103,533)" d="m0 0h2l-3 16-1 3-5 2-3 6-4 35-3 22-3 11-8 27-8 44-8 36-4 10-1-3-8 3-9 4h-2l-2-6-4 1-1 9-4 3-5-2-6-6v3h-2l-1-3-5 10h-5l-4-9v-3h-2v26l-2 2h-3l-1-27-1-8-2 2-3 15-2 1-2-7v-4h-2l-2 19-2-3-2-8-2 2-1 9-1 22h-3l-2-5-3-24h-2l-6 18-3 5-2-1v-8h-4l-1-4h-2v7l-4 12-2 2-4-1-1-8-2-1h2l2-5 9-9 17-12 40-30 12-10 10-8 5-16 3-18 2-32 4-17 7-19 7-12 8-11 2-3 1 1 9-11 23-23z" fill="#8183BA"/>
<path transform="translate(925,501)" d="m0 0 4 1-21 10-7 4h8l-1 4-6 9-9 10-16 15-19 14-21 11-10 4-18 2-12 6-15 9-6 1-8-3-9 6-5 4h-8l-4-4-1-7 4-7 6-8-9 3-16 13-9 8-5-1-2-3v-8l5-8 10-9 19-13-3-1 1-4 9-8 9-6 16-8 23-11 11-3 10-1 29-1 6-4 14-4 16-4 18-4z" fill="#406BAD"/>
<path transform="translate(556,728)" d="m0 0 5 5 10 13 5 5 8 6 14 8 5 5-1 7-7 6-8 4-14 10-7 7-13 9-23 12-16 8-7 3-9 4-10 4-22 10-13 5-11 5-18 7-10 4-8 3-2-1 15-15 7-8 9-10 6-7 5-5h2l2-4 16-17 25-25 14-11 10-8 13-12 15-14z" fill="#C9BEDE"/>
<path transform="translate(532,577)" d="m0 0h49l12 4 26 6 9 3v1h-6l-2-1-1 2v-2h-2l-1 2-6-1-7-3v2l-5-1h-8l-1 1h-8l-5-1h-3l1-2h-2l-1 3-4-1v-2l-8 6-26 4-31 6-23 5-8 3-12 4-8 4-13 5-9 4-17 9-23 8-8 2-19 6-15 4h-10l-12-4h-12l-12-3-2-1 1 6-1 1h-8l-6-2-2-2-1-4v-7h-2l-2 4-7 7-5 2-5-6v-3l-4 2h-7l-9-2-1-2 17-3 23-5 10 1 36-9 28-8 25-9 20-9 34-17h3v-2l28 2 18 2h16l21-5z" fill="#B9AED4"/>
<path transform="translate(1308,339)" d="m0 0 5 3 7 7 8 14 7 16 9 28 7 28 3 24 5 54 9 126 4 67 1 7-4 1h-16v-1h5l-8-86-9-94-4-44-5-14-8-15-9-12-7-8-7-5 1-24 3-58 1-11z" fill="#60699F"/>
<path transform="translate(0,933)" d="m0 0h13l36 4 27 5 16 5 16 9 21 13 22 14 11 9 7 7v1h-169z" fill="#12437F"/>
<path transform="translate(1073,845)" d="m0 0 4 4 5 13v19l9-6 6 2-1 11-3 8-6 8-21 21-10 17-8 12-12 13-14 14-10 8-16 11h-30v-7l7-33 6-18 4-8 21-2 7-3 2-10 11 1 5-3 3-5-1-7-9-10v-3l7-3 17-4 3-8 5-12 6-9 4-4h2l2-4z" fill="#12437F"/>
<path transform="translate(1109,526)" d="m0 0 2 1 1 14 1 108-3 12-11 28-1 11 3 13v16l-9 56-6 33-3-4-12-25-13-31-3-10v-7l4-10 6-27 2-11 4-23 5-23 7-21 4-21 4-39 2-8 4-6h4l2-12 3-11z" fill="#CC9CBD"/>
<path transform="translate(457,544)" d="m0 0h17l17 9 3 1h8l16-4 3 1-8 7-14 8-20 9v1h14l19-6 17-4h12l25 6 13 4v2h-47l-13 4-21 5h-16l-70-7h-28l-16 4-19 4h-16l-7-2-39-1-12-7-9-1-13 8h-4v-13l5-6 3-1h26l-1-11 31 3h94l20-6 23-6z" fill="#E9DBEE"/>
<path transform="translate(790,940)" d="m0 0h10l18 6 12 7 14 10 16 15 10 13 5 9h-178l1-7 5-12 7-11 7-8 10-6 30-10 22-5z" fill="#12437F"/>
<path transform="translate(1244,783)" d="m0 0 8 6 15 12 36 27 21 16 14 10v10l-6 12-10 13-9 10-10 10-11 8-10 11-7 10-2-1v-28l-1-25-10-12-4-8-4-22-2-5-6-1-4-1-4-9v-10l5-31z" fill="#406AAD"/>
<path transform="translate(787,714)" d="m0 0h20l34 1 26 2 3 1 1 5-2 6-6 8-9 13-9 10-9 11-2 4-3 3-3 12v2l5 1v1l-9-1-3-2-4-13-4-5-6-2-5 3-6 5-3 1-21 2-13 4-9 8h-3v-2l-9-3-13-5-2-4 7-8 15-11 7-8 8-14 7-8 11-8 8-7z" fill="#8493C9"/>
<path transform="translate(1236,823)" d="m0 0h1l-1 36-5 141h-71l8-20 11-25 9-21v-3h2l3-9 42-98z" fill="#3F4F8D"/>
<path transform="translate(212,539)" d="m0 0h1l-1 11-4 21-3 9-6 4h-7l-1 3v-6h-2l-2 5-8 1v2h-3l-1 6-3-1-2-2h-2l-1-5-12 6-18 10-13 5-20 6h-11l-21-14-2-1-3-5-8-6h-35l-4-1-15-1-2-2h47l10-5 1-2-3 1h-14l-7 1-9 2-10 1 2-2 16-4 34-6 16-2h17l28 5h12l6-3 2-2v-6h2l2-4 3-3 9 1h20l12-6 11-9h2z" fill="#BAAED4"/>
<path transform="translate(1237,825)" d="m0 0 2 1 4 9h7l4 4 3 12 3 16 7 10 6 7 1 25v28l-8 16-7 12-8 16-9 19h-11v-28l5-139z" fill="#AA8DB5"/>
<path transform="translate(1072,662)" d="m0 0h1l-1 10-5 27-8 36-4 10-1-3-8 3-9 4h-2l-2-6-4 1-1 9-4 3-5-2-6-6v3h-2l-1-3-5 10h-5l-4-9v-3h-2v26l-2 2h-3l-1-27-1-8-2 2-3 15-2 1-2-7v-4h-2l-2 19-2-3-2-8-2 2-1 9-1 22h-3l-2-5-3-24h-2l-6 18-3 5-2-1v-8h-4l-1-4h-2v7l-4 12-2 2-4-1-1-8-2-1h2l2-5 9-9 17-12 40-30 12-10 24-18 13-11 14-11 10-8z" fill="#9B97C8"/>
<path transform="translate(550,593)" d="m0 0h8l-5 4-11 8-13 10-12 11-15 11-7 4-9 2-1 2-3 1v3l-14 8v2l-9 3-24 13-25 14-18 10-6 3-5-1-12-11-9-9v-2l21-6 27-6 19-7 36-16 12-7-36 13-12 4-3-1 18-11h2v-5l28-8 2-1-13-4-6 1-12 7h-10l1-2 12-5 5-3h3l1-3 8-4 10-4 7-2-1-2 38-8z" fill="#7088C2"/>
<path transform="translate(212,538)" d="m0 0 6 2 11 4h22l27 9 4 1 1 3v8l-26 1-5 3-2 3v30l-22 1-15 6-14 7-10 1-13-4-10-5 1-9 3-9 5 5 1-6h3v-2l6-2h2l2-4h2l1 3 9-2 4-3 6-29z" fill="#406BAE"/>
<path transform="translate(0,269)" d="m0 0h8l15 3 12 4 10 6 5 7 2 15 1 2 14 3 24 3 1 4-5 5-16 8-23 6-20 3-15 1h-13z" fill="#E2BFDB"/>
<path transform="translate(0,585)" d="m0 0 20 1 4 1h35l8 6 3 3v3l2 1v9l-4 6-9 7-17 8-31 10-11 3z" fill="#7089C2"/>
<path transform="translate(661,516)" d="m0 0h25l27 4 28 6 31 9 2 2v2l-15 8-10 6-6-2-38-9-32-7-36-2-7-2 1-5 7-4 16-5z" fill="#9C98C8"/>
<path transform="translate(796,865)" d="m0 0h6l-1 5-7 14-6 20-7 12-6 5-22-12-25-12-9-4 4-4 16-9 28-11 4-1-3 10-7 14-3 5 9-5 7-6 10-14 6-5z" fill="#12437F"/>
<path transform="translate(528,900)" d="m0 0h9l1 3v11l10-2h8l-2 4h-2v2l-8 4h-9l-9-2-1 3h-2v3h-2v3h-2l-1 4-5 3h-24l-9 7-7-1-9-6h-6l-3 2h-3v2l-7 1-3-2 3-12 1-1 27-3 10-3 7-7 3-2 12-2 2-4 3-2h9z" fill="#154682"/>
<path transform="translate(1240,294)" d="m0 0h27l36 3 19 3-5 5h-2l-1 8-9 11-4 6-5-4-1 3-5-1-16-9-14-9 2-3-9-3-3-3-2 1-8-6z" fill="#7188C2"/>
<path transform="translate(389,579)" d="m0 0h23l24 3v2l-23 11-22 11-28 11-19 6h-5v-3h2l-1-2v-7l3-1-21-7 4-4h8l10 4h7l8-3 5-3 9-1 1 2 9-2 7-3 5-2 1-7h6 3v-2l-9-1-8 1z" fill="#928BBB"/>
<path transform="translate(728,567)" d="m0 0 4 1h-2l-1 4-2 2v3l-11 9-6 9-1 5-9 3-9 1 3-3 8-5h2l-1-2-5-2h-6l-4 4-6-2-4 2-4-3-1 2-4-2-1 2-5 1-4-2 1-4 15-6 4-4 13-4h7l6 1 8-4 11-4z" fill="#BAAED5"/>
<path transform="translate(666,552)" d="m0 0 5 1 4 1 1-2 8 1 10 7v2l4 2 7 6-4 2-24 7-1 1h-6l-7-9v-3l-4-2-6-6 2-4 4-3z" fill="#8593C9"/>
<path transform="translate(736,549)" d="m0 0 12 2 1 3-7 6-1 3 4 1-16 11-3-1 3-3 1-3-6 2-18 7-3 1-4-1h-7l-13 4-4 4-15 6v3l5 1 3-1-2 5-9-1-3 1v-2l-5 2v-5l-7 3-4-1 20-8 10-5 2-3 7-2 24-7h4l1-3 18-7 6-2 5-4z" fill="#DEBDDA"/>
<path transform="translate(1294,611)" d="m0 0h1l7 40 7 31 5 19v2h-32v-1h15l-1-13z" fill="#5E689E"/>
<path transform="translate(652,558)" d="m0 0 5 5 6 5 4 7 3 4-1 4-21-2-30-8-6-2 1-4h20l11-4z" fill="#B8ADD3"/>
<path transform="translate(571,862)" d="m0 0 6 2 5 5v3l-22 3-13 6-4 1h-9l-5-3 1-7h2l1-7 1-1 14-1 6 1z" fill="#164683"/>
<path transform="translate(178,568)" d="m0 0 4 1-2 6-7 6-6 2v2l-2 1-14 1-2 4-3 1v2l-10 4-5 4-16 5-13 1v-4h2l1-3 8-5 7-2 12-3 4-3 11-2 11-7 15-8z" fill="#BBA1CA"/>
<path transform="translate(212,538)" d="m0 0 6 2 11 4 14 1-2 1v5l-5-1v7l-5 1-4-1-3 5-3 2v2l-4 2-6 8-5 3v-6l3-13 3-16z" fill="#7189C2"/>
<path transform="translate(1021,684)" d="m0 0 2 1-1 8-4 12-9 8v-3l2-4-6-2-4-2-2-5v-8l6-4 5 1 1 3h2v4l-3 3 1 4h3l2-6z" fill="#606AA0"/>
<path transform="translate(484,860)" d="m0 0 9 1 28 1-2 5-5 5-9 1-15-3-6-5z" fill="#144581"/>
<path transform="translate(493,900)" d="m0 0h12v5l-4 3-13 1 1 2 3 2-6 4v-2l-13 5-8-1-2-1 1-3 17-7 6-5h2v-2z" fill="#6F88C2"/>
<path transform="translate(606,867)" d="m0 0 7 1 4 5-3 3h-3v2h-3v2l-7 3h-11l-1-4 4-5 8-5z" fill="#174884"/>
<path transform="translate(44,577)" d="m0 0h17l-2 4-9 4h-50v-2l17-2h7l6-2 12-1z" fill="#BBA1CA"/>
<path transform="translate(598,636)" d="m0 0h10l2 5-5 4-10 6-1-3h-2v2l-3 1-2-3-8 1-1-2 3-4 9-2h6v-2l-3-1z" fill="#B9A1CA"/>
<path transform="translate(704,538)" d="m0 0 11 1 2 2v1h7v2l6-1 3 1h19l1-1h6l2 2-5 4-7 4-6-2-33-8 2-2-8-2z" fill="#BAA0CA"/>
<path transform="translate(297,585)" d="m0 0h29l7 2 17 1 1 4-5-1v-1l-15-1-6 3h-10l-15-3-4-3z" fill="#918ABB"/>
<path transform="translate(383,645)" d="m0 0 3 1-2 2h9l-4 3-24 8-5 1h-9l-3-2 7-1 8-4 14-4h4v-3z" fill="#6F88C2"/>
<path transform="translate(670,580)" d="m0 0h5l1 3-1 2-15 6v3l5 1 3-1-2 5-9-1-3 1v-2l-5 2v-5l-7 3-4-1 20-8 10-5z" fill="#C9BDDE"/>
<path transform="translate(1278,301)" d="m0 0 15 1 1 7h2v2h6l-1 3-6 1-8-2-3-1-1-2h-5z" fill="#8183BA"/>
<path transform="translate(645,570)" d="m0 0h6l-1 3 4-1 1 5h2l2 5-11-1-20-5 4-2h6l2-3z" fill="#B59FC9"/>
<path transform="translate(668,542)" d="m0 0 6 2 8 6 1 2h-7l-1 3-5-2h-8l-2-2z" fill="#E9DAED"/>
<path transform="translate(713,586)" d="m0 0 1 2-4 7-1 5-9 3-9 1 3-3 8-5h2l-1-2-11-4 3-3 7 3 7 2 2-4z" fill="#C5BADC"/>
<path transform="translate(381,580)" d="m0 0h6l-3 2-5 2-3 1v2l-16 3h-7l-2-1v-2l13-3 12-3z" fill="#8E8ABB"/>
<path transform="translate(75,515)" d="m0 0 7 1 16 6 21 11 13 9v3l-11-6-6-5-19-10-21-8z" fill="#A299C9"/>
<path transform="translate(266,576)" d="m0 0 9 1 12 7 4 1v2h-6l-7-2-5-5h-2l-2 3h-4l-5 2 1-3-3 1v-2z" fill="#938DBD"/>
<path transform="translate(935,770)" d="m0 0h1l1 7-3 10-2 2-4-1-1-8-2-1h2v-2z" fill="#9E9AC9"/>
<path transform="translate(659,561)" d="m0 0 6 4 11 9-1 5-5 1-7-9-4-8z" fill="#416BAE"/>
<path transform="translate(664,529)" d="m0 0 9 1 8 1 1 4-24-1-9-1v-1l11-1z" fill="#928BBB"/>
<path transform="translate(212,544)" d="m0 0 4 4-1 10-2 5-2 8-3 3-1 5h-1v-6l3-13z" fill="#8384BA"/>
<path transform="translate(1025,654)" d="m0 0h1v17l-1 3h-2l-4-11v-6l3-2z" fill="#5D6AA1"/>
<path transform="translate(967,417)" d="m0 0h16v2h13l1 2-10 1h-12l-7-2z" fill="#DAB2D3"/>
<path transform="translate(666,891)" d="m0 0 3 1-2 7-5 4-6 1-5 5h-2l2-4h2v-2l8-7z" fill="#7089C3"/>
<path transform="translate(71,597)" d="m0 0 5 2 14 9 3 1v2h7l4 1v2h-11l-22-15z" fill="#D8B7D7"/>
<path transform="translate(499,937)" d="m0 0 10 1-1 4-2 1-17 1 1-3h2v-2z" fill="#7089C3"/>
<path transform="translate(505,653)" d="m0 0h6l1 1v8l-4 1-6-2 1-5z" fill="#B9A1CA"/>
<path transform="translate(613,567)" d="m0 0 19 1 1 4-4-1v2l-9-2v2l-8-2z" fill="#B7A0CA"/>
<path transform="translate(535,868)" d="m0 0 5 1-1 5 3 1h-3v3l-5 1-3-2 2-6z" fill="#406BAE"/>
<path transform="translate(657,591)" d="m0 0h2l1 3 5 1 3-1-2 5-9-1-3 1v-2h-3v-4z" fill="#D8BAD9"/>
<path transform="translate(389,579)" d="m0 0h23l5 1v3h-9l-7-2h-8l-5 1z" fill="#898CC0"/>
<path transform="translate(379,647)" d="m0 0h2v2l-20 6-6 3h-7l2-3 21-6z" fill="#466DAF"/>
<path transform="translate(675,590)" d="m0 0 12 1 1 2 2-1-2 4-6-2-4 2-4-3-1 2-2-1v-3z" fill="#DABEDB"/>
<path transform="translate(643,623)" d="m0 0h6l-3 5-7 3-3-2 2-5z" fill="#B8A0C9"/>
<path transform="translate(686,530)" d="m0 0h8l4 3 6 2v1l-16-1v-2l-3-2z" fill="#928BBB"/>
<path transform="translate(659,587)" d="m0 0 2 1-4 4-6 1 1 5-3 1v-5l-7 3-4-1 20-8z" fill="#BAB2D7"/>
<path transform="translate(747,529)" d="m0 0 8 1 5 2-2 2-4 1-7-2-1-3z" fill="#938CBC"/>
<path transform="translate(421,635)" d="m0 0 2 1-8 5-8 3-4-1 6-4z" fill="#7089C3"/>
<path transform="translate(358,594)" d="m0 0 3 3-3 3h-10v-2z" fill="#928BBB"/>
<path transform="translate(687,575)" d="m0 0 3 1-3 3-8 2-2 3-2-1 1-4 8-3z" fill="#D7BCDA"/>
<path transform="translate(1249,300)" d="m0 0 6 4 8 3-3 3-5-2-7-5z" fill="#8083BA"/>
<path transform="translate(128,604)" d="m0 0 3 1-7 3-13 4-4-1 6-1v-2l5-1z" fill="#D9B1D3"/>
<path transform="translate(358,585)" d="m0 0 5 1 2 2h-3l-1 2h-8l-2-1v-2z" fill="#948FBF"/>
<path transform="translate(13,581)" d="m0 0h4l1 2 5 1v1h-23v-2z" fill="#BAAFD5"/>
<path transform="translate(565,864)" d="m0 0h6v2h2v2l-2 1h-6l-4-3z" fill="#406BAE"/>
<path transform="translate(71,597)" d="m0 0 5 2 8 5-1 3-12-8z" fill="#D6B6D6"/>
<path transform="translate(556,917)" d="m0 0 3 1-1 3 7 1v1h-11l-3-3z" fill="#6481BE"/>
<path transform="translate(622,570)" d="m0 0 7 3v-2l3 1v3h-7l-5-2v-2z" fill="#B4ABD3"/>
<path transform="translate(1266,302)" d="m0 0h3v2l3 1 1 3-8-1z" fill="#8183BA"/>
<path transform="translate(737,869)" d="m0 0 2 1-2 5-6 3v-4h2v-2z" fill="#7089C3"/>
<path transform="translate(616,587)" d="m0 0 10 2 2 2h-6l-2-1-1 2v-2h-2l-2 2z" fill="#999ACA"/>
<path transform="translate(724,576)" d="m0 0 2 1-9 8h-2l2-4 4-4z" fill="#C9B8D9"/>
<path transform="translate(607,926)" d="m0 0h4l-1 3-12 3v-2z" fill="#7089C3"/>
<path transform="translate(464,811)" d="m0 0v3l-9 10h-2l2-4z" fill="#456EB0"/>
<path transform="translate(31,577)" d="m0 0m-5 1h5l-3 3-10 1 2-2z" fill="#BAAFD5"/>
<path transform="translate(484,836)" d="m0 0h6l-2 3-7 1v-3z" fill="#BAAFD5"/>
<path transform="translate(558,645)" d="m0 0h5l2 1h6l1 2-6-1-1 2-7-2z" fill="#B79FC9"/>
<path transform="translate(1383,279)" d="m0 0h7l-4 1-1 3-8-1v-2z" fill="#808DC4"/>
</svg>
