<?xml version="1.0" encoding="UTF-8"?>
<svg version="1.1" viewBox="0 0 2000 2000" width="500" height="500" xmlns="http://www.w3.org/2000/svg">
<path transform="translate(0)" d="m0 0h2e3v2e3h-2e3z" fill="#FCFCFC"/>
<path transform="translate(1295,326)" d="m0 0 9 1 15 8 10 8 12 11 12 12 13 17 15 23 12 21 8 16 9 20 11 30 8 28 7 34 3 21 2 25v48l-3 28-4 23-6 26-12 36-12 27-10 20-10 16-10 15-14 19-10 11-9 11-15 16-8 8-8 7-7 7-10 8-13 11-19 13-14 10-19 12-16 9-24 13-17 10h-2l-2 4-14 7-8 1h-13l-32-8-13-2h-8l-9 3-9 7-3 5 1 1 27 1 10 4 9 6 5 6 3 1 27-4 34-7 44-13 22-8 27-12 23-11 14-8 16-10 16-11 11-8 16-13 13-11 5-5h2v-2l5-4 1-2h2l2-4 11-11 9-11 13-16 11-16 13-21 6-10 14-28 7-16 11-29 9-29 8-33 6-33 4-32 2-25 3-69 2-20 3-6 4-2 7 6 9 15 8 19 7 24 5 25 2 16 1 15v43l-3 30-5 30-9 36-8 24-8 21-5 12-8 16-10 19-13 21-10 14-10 13-13 15-7 8-17 17-11 9-11 10-18 13-17 11-19 11-16 8-19 9-30 11-28 9-25 6-32 6-42 5-59 1-4 1-2-1-31-2-2-1-12-1h-19l-7 4h-2v3l6 1 8 6 9 9 7 10v2l34 1h77l43-3 36-4 30-5 42-9 28-8 29-11 26-11 24-13 20-12 17-12 14-12 11-9 20-20 9-11 8-10 7-11h3l-2 9-10 23-8 17-8 14-10 15-8 11-13 16-9 10-22 22-11 9-14 11-15 10-19 12-27 14-19 9-25 10-28 9-34 9-35 7-33 5-21 2-22 1h-44l-30-2-39-5-40-8-60-15-45-14-35-11-44-14-41-12-28-7-46-9-23-3-12-1h-54l-32 3-25 4-32 8-23 8-26 11-28 14h-2l2-5 16-13 9-8 17-12 22-13 26-13 20-8 23-7 39-8 20-3 20-2h48l30 3 5 1-4-4-10-7-13-9-11-5-6-1h-14l-8 2h-5l2-4 11-9 13-7h12l17 4 19 6 9 2 13-1 16-7 8-4 1-3-29-1-10-4-6-5-7-10-2-7 1-5 4 2 12 8h9l11-3 10 1 7 1h11l10-3 1-2-9-2-11-8-5-5-6-9-5-7-10-6-9-2h-8l2-4 6-5 3-1h12l12 6 9 9 8 3h15l-2-5-8-5-15-9-12-12-7-14-5-29-4-10-6-5-11-6v-3h19l10 4 7 7 11 16 16 26 9 10 8 5 5 2h6l2-1-1-6-13-16-4-7-1-5v-13l3-9 3-1 4 4 3 12 1 3 5 2 14 8 6 7 8 18 1 1h6l2-1-1-9-2-9-1-33-6-17-2-5v-4l5 1 9 6 7 6 7 14 5 17 4 6 4 1-6-13-2-6v-18l5-13 15-26 5-11v-14l-2-7 1-5 6 2 8 7 5 8 4 13-1 13-7 29-3 17-1 14 4 10 5 6v-16l6-16 7-11 12-12 11-7 4-2h6l1 2-9 15-7 11-4 10 1 17v20l5-2 12-11 10-11 9-14 7-17 3-2 8 16 1 4v13l-7 13-7 11-3 8v7h2l2-5 10-16 9-10 10-6 11-4 21-5 9-5 8-9 5-10 3-8 3 1 3 13v12l-6 12-9 10-15 11-16 10-11 8-8 9-4 8-2 7v4l4-1 14-14 14-7 4-1h19l12 6 2 3-5 2-16 2-8 3-14 16-12 12-6 10-2 6 6-3 1-1 32-1 12-3 12-6 7-8 3-5 2 1v7l-3 7-6 9-11 10-14 8-14 7-3 4 15-6h17l14 3 16 7 14 8 13 4h15l13-7 17-12 11-9 13-11 14-13 8-7 10-9 11-12 10-11 9-11 13-16 18-27 8-13 10-18 8-16 10-22 9-24 10-35 6-31 3-21 2-35v-14l-2-34-4-34-7-36-6-24-9-29-12-33-13-31-26-56-4-11z" fill="#EBAC49"/>
<path transform="translate(607,1079)" d="m0 0 34 1 24 3 38 7 31 9 27 9 30 12 38 17 45 19 39 16 41 15 36 12 39 12 29 8 46 11 35 7 55 8 30 3h87l32-3 26-4 27-6 24-7 26-9 28-13 20-11 18-12 16-12 13-12 9-8 1 4-6 10-11 16-10 14-12 13-7 8-8 8-8 7-11 10-17 13-15 10-21 12-24 12-27 11-25 8-32 8-36 6-27 3-18 1h-51l-30-2-35-4-27-5-40-10-33-10-33-13-35-15-25-12-23-12-22-12-23-13-14-7-19-10-24-13-18-10-34-17-37-16-44-15-36-9-24-4-22-2-21-1h-18l-20 1-31 4-29 5-24 6-6 2h-4l1-3 19-11 17-9 25-10 22-7 20-5 32-5z" fill="#054EB1"/>
<path transform="translate(1541,920)" d="m0 0h3l-2 9-10 23-8 17-8 14-10 15-8 11-13 16-9 10-22 22-11 9-14 11-15 10-19 12-27 14-19 9-25 10-28 9-34 9-35 7-33 5-21 2-22 1h-44l-30-2-39-5-40-8-60-15-45-14-35-11-44-14-41-12-28-7-46-9-23-3-12-1h-54l-32 3-25 4-32 8-23 8-26 11-28 14h-2l2-5 16-13 9-8 17-12 22-13 26-13 20-8 23-7 39-8 20-3 20-2h48l30 3h7l28 5 9 1 9 3 42 9 38 9 39 8 73 12 52 6 45 4 24 1h77l43-3 36-4 30-5 42-9 28-8 29-11 26-11 24-13 20-12 17-12 14-12 11-9 20-20 9-11 8-10z" fill="#3A73C5"/>
<path transform="translate(1028,273)" d="m0 0h11l18 4 20 7 20 9 19 10 24 16 16 12 13 11 12 11 8 7 16 16 9 11 11 13 13 18 15 24 9 16 12 23 10 22 12 35 7 28 4 21 4 36v37l-3 30-5 30-8 32-12 36-13 30-8 16-12 23-14 23-11 16-12 17-12 15-9 11-12 14-9 10-9 9-2-1 11-14 7-11 10-16 14-25 15-31 11-27 12-36 8-32 6-34 2-15 2-35v-17l-2-31-4-30-6-28-7-25-10-29-11-25-13-25-15-25-10-15-10-14-14-18-13-16-12-13-15-16-7-7-8-7-9-9-8-7-10-9-11-9-10-9-11-9-15-14-6-7-1-4 5-3z" fill="#3A73C5"/>
<path transform="translate(1527,501)" d="m0 0 5 2 5 6 8 13 8 19 7 24 5 25 2 16 1 15v43l-3 30-5 30-9 36-8 24-8 21-5 12-8 16-10 19-13 21-10 14-10 13-13 15-7 8-17 17-11 9-11 10-18 13-17 11-19 11-16 8-19 9-30 11-28 9-25 6-32 6-42 5-59 1-4 1-2-1-31-2-2-2 15-2 31-3 34-6 25-6 40-12 19-7 27-12 23-11 14-8 16-10 16-11 11-8 16-13 13-11 5-5h2v-2l5-4 1-2h2l2-4 11-11 9-11 13-16 11-16 13-21 6-10 14-28 7-16 11-29 9-29 8-33 6-33 4-32 2-25 3-69 2-20 3-6z" fill="#3A73C5"/>
<path transform="translate(1295,326)" d="m0 0 9 1 15 8 10 8 12 11 12 12 13 17 15 23 12 21 8 16 9 20 11 30 8 28 7 34 3 21 2 25v48l-3 28-4 23-6 26-12 36-12 27-10 20-10 16-10 15-14 19-10 11-9 11-15 16-8 8-8 7-7 7-10 8-13 11-19 13-14 10-19 12-16 9-24 13-19 11-8 3-7 4h-5l6-7 5-3 5-5 13-7 17-12 11-9 13-11 14-13 8-7 10-9 11-12 10-11 9-11 13-16 18-27 8-13 10-18 8-16 10-22 9-24 10-35 6-31 3-21 2-35v-14l-2-34-4-34-7-36-6-24-9-29-12-33-13-31-26-56-4-11z" fill="#3A73C5"/>
<path transform="translate(919,911)" d="m0 0 16 1 17 4 13 5 11 6 11 11 9 15 5 11 7 22 3 20-1 13-3 16-6 16-7 11-7 8-2 1-12-1-78-13-46-10-11-3-4-9-3-13-1-9v-9l3-19 5-19 4-9 6-11 12-12 8-7 14-8 12-5 8-2z" fill="#FCFCFC"/>
<path transform="translate(1044,1320)" d="m0 0h22l12 3 12 6 10 9 8 14 4 12v16l-4 14-6 10-8 9-11 7-10 4-10 2h-15l-16-4-11-6-10-9-7-10-4-11-1-4v-19l4-13 6-10 9-9 10-6 11-4z" fill="#064FB1"/>
<path transform="translate(685,1320)" d="m0 0h21l15 4 11 6 9 8 7 11 4 11 1 5v15l-2 9-7 14-8 9-10 7-12 5-11 2h-14l-16-4-14-8-8-8-7-11-3-9-1-5v-17l4-14 6-10 9-9 12-7z" fill="#064FB1"/>
<path transform="translate(510,1290)" d="m0 0h29l1 2v59l5-5 7-8 16-16 7-8 14-14 7-8 4-2h30l2 1-2 4-17 17-7 8-11 12-14 15-2 4 11 14 13 16 10 13 11 14 9 11 3 3v2l-26 1-10-1-9-10-9-11-11-14-10-12-2-3-4 1-14 14-1 3v31l-1 1h-30l-1-1v-73l1-59z" fill="#064FB1"/>
<path transform="translate(773,1321)" d="m0 0h28l1 1 1 59 3 10 5 5 5 2h13l8-4 6-8 1-3 1-12 1-49 1-1h28l1 1v101l-1 1h-27l-1-10-15 9-10 3h-13l-12-3-10-6-7-7-6-12-2-9v-67z" fill="#0750B2"/>
<path transform="translate(922,1505)" d="m0 0h11l10 3 6 4 5 6 3 9-1 9-4 7-10 9-3 2 2 4 8 7 4 4v2h3l2-9 3-6 9 2 8 3-1 7-5 12-1 6 9 8-1 4-9 10-4-1-9-7-5 2-10 5-13 3h-13l-12-3-10-6-7-8-3-8v-8l3-9 6-8 11-8-1-4-5-7-2-6v-10l4-8 5-5 6-4z" fill="#3B7DD4"/>
<path transform="translate(898,1321)" d="m0 0h88l1 1v16l-6 9-10 11-9 11-9 10-16 20v1h50l1 1v23l-17 1h-49l-25-1-1-1v-17l12-14 8-10 13-15 8-10 9-10 1-2h-46l-4-1v-22z" fill="#0851B2"/>
<path transform="translate(620,1529)" d="m0 0h17l13 4 9 6 8 10 4 9 1 5v13l-4 12-7 9-9 7-10 4-5 1h-15l-13-4-9-6-7-8-5-10-1-3v-18l4-11 7-9 10-7z" fill="#3A74C6"/>
<path transform="translate(1390,1529)" d="m0 0h16l10 3 10 6 7 8 4 8 3 11v9l-4 2h-56l6 9 7 4 4 1h9l12-4 1-1h5l7 7 2 3-1 4-14 8-8 2h-16l-12-3-10-6-7-7-7-14-1-6v-10l3-10 6-10 9-8 11-5z" fill="#3B7DD4"/>
<path transform="translate(1208,1529)" d="m0 0h20l10 3 8 5 6 7 4 10v54h-19l-2-7-11 6-6 2h-14l-9-3-9-8-4-10 1-10 3-6 7-6 8-3 6-1h26l-2-8-6-5-5-1h-9l-9 2-7 3h-3l-6-11 1-5 10-5z" fill="#3B7DD4"/>
<path transform="translate(687,1530)" d="m0 0h22l1 3v36l2 13 4 5 3 1h11l6-3 4-4 2-7 1-43 1-1h21l1 1v76l-1 1h-19l-2-7-7 3-7 4-4 1h-13l-9-3-6-4-7-8-4-11-1-8v-26z" fill="#3A73C5"/>
<path transform="translate(1026,1507)" d="m0 0h89v18l-1 1-30 1-1 21-1 59-1 1h-21l-1-1-1-79-1-1-30-1-1-1z" fill="#3A73C5"/>
<path transform="translate(494,1507)" d="m0 0h88v16l-1 3-31 1-1 81h-19l-5-2v-78l-1-1-30-1-1-1v-17z" fill="#3A73C5"/>
<path transform="translate(1283,1529)" d="m0 0 5 1 5 11 14 34 2 6h2l3-10 15-35 3-6h21l-1 5-20 47-10 23-1 2-3 1h-19l-3-3-30-70-1-5z" fill="#3A74C6"/>
<path transform="translate(1454,1501)" d="m0 0h23v106l-1 1h-21l-1-1z" fill="#3A74C6"/>
<path transform="translate(1049,1345)" d="m0 0h13l10 5 6 7 3 8v15l-4 10-7 7-6 3-5 1h-8l-9-3-7-6-5-10-1-6v-8l3-9 4-6 7-6z" fill="#FDFDFD"/>
<path transform="translate(690,1345)" d="m0 0h13l10 5 6 7 3 7v15l-3 9-8 9-7 3-5 1h-7l-9-3-7-6-5-10-1-6v-8l3-10 8-9 5-3z" fill="#FDFDFD"/>
<path transform="translate(1166,1529)" d="m0 0h7l1 1v20l-14 2-6 4-4 5-1 2-1 44-1 1h-21l-1-1v-76l1-1h21v8l10-6z" fill="#3A74C6"/>
<path transform="translate(828,1529)" d="m0 0h7v20l-1 1-13 2-5 3h-2l-4 8-1 44-1 1h-21l-1-1v-76l1-1h20l1 5v3l7-4 6-3z" fill="#3A73C5"/>
<path transform="translate(1390,1529)" d="m0 0h16l10 3 10 6 7 8 4 8 3 11v9l-1 1h-25l-2-2 2-3h2 10l3-2v-9l-5-1-5 2-5-6v-2l-4-2-9-3-9 1-8 4-3 3h-2l-2 4h-2l1-10-5 1v2h-2l-1 4-2 2-2 10 6 12v2l4 1 3 2v7l-1 3 4 3v2h5l2 4 5 2v1h-7l-12-6-8-8-7-14-1-6v-10l3-10 6-10 9-8 11-5z" fill="#3A74C6"/>
<path transform="translate(744,1530)" d="m0 0h21l1 1v76l-1 1h-19l-1-1v-6l9-5-1-6-2-7h-9l1-52z" fill="#3A73C6"/>
<path transform="translate(623,1548)" d="m0 0h12l8 4 4 5 2 6v12l-4 8-7 6-5 2h-7l-8-3-7-8-2-7v-9l5-10z" fill="#FDFDFD"/>
<path transform="translate(1177,1032)" d="m0 0h6l3 1h8l4 6v3h-2v2l3-1h10v1l-35 4-59 1-4 1-2-1-31-2-2-2 15-2 31-3 34-6 9-1 1 2 4-2z" fill="#3B7DD4"/>
<path transform="translate(601,1551)" d="m0 0h2l-1 8 1 13v10l10 5 1-2h-2l1-3 7 6 6 2h7l8-4 5-6 2 2 3-1v-2h2l2-9 1-2 5-1 3 5v6l-4 6-1 5-4 2-3 3h-4l-1 4-6 2-1 2h-3l-2 4-3 1 5 1v1h-15l-5-1v-2l-3-3-2-4-10-10-2-5-3-6-2-1v-2h-2l-1-11 3-5 1-5 5-1z" fill="#3B7DD4"/>
<path transform="translate(741,1578)" d="m0 0h1v5l10-1 3 10-1 5-8 4-2 2v-2l-7 3-7 4-4 1h-13l-5-1 2-2-2-4-7-6-2-7v-6l8 5h4l2-4 3 3 3 1h11l6-3 4-4z" fill="#3B7DD4"/>
<path transform="translate(1026,1507)" d="m0 0h89v18l-1 1-30 1-1 21-1 59h-1l-1-64 1-14 3-9 11-1 11 1 2-1-1-4 5 2 1 4 1-13h-87v3l6-2h4v2l6 1v2l7-1 3 1 1 4-1 1 4 2-1 4 4 2v80h-1l-1-79-1-1-30-1-1-1z" fill="#3C7ED5"/>
<path transform="translate(1243,1537)" d="m0 0 5 2 6 9 2 6v54h-19v-5l7-3h3v-2h2l-1-17v-9l-2-15-4-7v-2h-2l-5-5 1-5h6z" fill="#3A74C6"/>
<path transform="translate(917,1564)" d="m0 0 5 2 7 7 8 7 5 6-4 3-5 2-14 1-9-4-3-4-1-6 4-8z" fill="#FDFDFD"/>
<path transform="translate(828,1529)" d="m0 0h7v20l-1 1-13 2-5 3-2-1-1-3-4-2-2-4-2-1-1 4-4 2v2h-4l-1-4 1-6 6 1 4-2 2-3 7-4 6-3z" fill="#3B7DD4"/>
<path transform="translate(1166,1529)" d="m0 0h7l1 1v20l-14 2-4 1-3-3-4-2v-2l-7 4-3-1 1-5 2-2 1-5 2-1 1-5h-20v-1h21v8l10-6z" fill="#3B7DD4"/>
<path transform="translate(1194,1533)" d="m0 0h6l2 9 1 3 10-5 7-1 4-3h2l1-2 2 2v5l-2 2 7 1 3 3 2 1v14h-3l1-3h-3v-3h-2l-5-6-7-2h-9l-9 2-7 3h-3l-6-11 1-5z" fill="#3A74C6"/>
<path transform="translate(1397,1546)" d="m0 0 8 1 6 3 5 5 2 3-1 4h-36l-1-3 4-6 6-5z" fill="#FDFDFD"/>
<path transform="translate(1211,1576)" d="m0 0h22l1 6-4 6-5 4-6 2h-7l-5-3-3-5 1-6z" fill="#FDFDFD"/>
<path transform="translate(687,1530)" d="m0 0h22l1 3v44h-1l-1-7-1-23-1-9 2-7h-20v4l6-1 5 6v3h2l-1 5-4 3h-2v2h-2l-3 6-1 24h-1l-1-8v-26z" fill="#3C7ED5"/>
<path transform="translate(931,1561)" d="m0 0h7l4 4v-3l4 2 6 6v3h-2v2l-5 2-2 5-4 1-8-8-7-6v-2l5-1-2-4z" fill="#3A73C5"/>
<path transform="translate(925,1521)" d="m0 0 8 1 4 4v6l-4 6-6 4-5-1-5-7-1-6 4-5z" fill="#FDFDFD"/>
<path transform="translate(1131,314)" d="m0 0 5 2 19 14 14 12 12 11 8 7 16 16 9 11 11 13 3 4-1 2-3-2v-2l-4-2-5-9-7-6-6-7-5-5-1-3h-2v-2h-2v-2l-4-2-10-10-6-5-5-5v-2h-3v-2l-4-2-8-6v-2l-4-2-10-7-7-6z" fill="#3C7ED5"/>
<path transform="translate(1332,1530)" d="m0 0h21l-1 5-8 19-1-3h-2l-5-6 1 5-2 2-2-7-2-2 5-5-2-1 2-5z" fill="#3B7DD4"/>
<path transform="translate(1241,567)" d="m0 0 3 4 3 12 2 4 2 12 2 5 2 16 2 8 2 24 2 8-1 45-2 24h-1v-12l1-22v-17l-2-31-4-30-6-28-5-18z" fill="#3C7ED5"/>
<path transform="translate(941,1511)" d="m0 0 9 2 4 5 3 9-1 9-1 3-3-1-3-3v-4h-2l-3-8-3-3h-2v-3l-3-1-1-4z" fill="#3A73C6"/>
<path transform="translate(1195,1565)" d="m0 0h6l-2 2-4 2v2h-2l1 4-2 4h-2l-1 7 2 7 2 6 4 3v3l-5-1-7-8-3-8 1-10 3-6 7-6z" fill="#3A74C7"/>
<path transform="translate(1365,515)" d="m0 0 2 4 4 19 2 10 2 12 1 2 3 35 2 11-1 37-2 27h-1v-12l1-22v-14l-2-34-4-34-7-36z" fill="#3C7ED5"/>
<path transform="translate(765,1531)" d="m0 0h1v76l-5-3 2-18v-51z" fill="#3C7ED5"/>
<path transform="translate(792,1014)" d="m0 0 4 1-2 4-10 7-5 2h-16l-4-2 16-6 13-5z" fill="#FDFDFD"/>
<path transform="translate(1028,273)" d="m0 0h11l6 1v1l-5 1 1 4 4 2-1 6-4 1-7-3h-2v-2h-2l-1-5-4-1-3-2z" fill="#3C7ED5"/>
<path transform="translate(968,1587)" d="m0 0 7 2 5 5-1 4-9 10-4-1-4-3 1-10h9v-2l-3-1z" fill="#3A74C7"/>
<path transform="translate(1523,951)" d="m0 0h2l-1 10-5 5-3 2v3l-2 4-2-1-1-2h-2l-7 7-7 5-3-1 5-6 4-4h2l2-4 8-7h2l2-4 5-5z" fill="#3B7DD4"/>
<path transform="translate(1314,1571)" d="m0 0 1 4-1 6h2l1 2 3-1 1-7 1-2h2v-2h2l1 5-1 5 1 3h-2l3 5-1 3-2-2-4 1h-2l-2 6-2-1v-5l3-6h-2l-2 3v-2l-2-1-3-4h2z" fill="#3B7DD4"/>
<path transform="translate(1277,1532)" d="m0 0h5l1 7h2l1 8-2 4-4 1-1-3-5-3-2-5v-4z" fill="#3B7DD4"/>
<path transform="translate(786,1531)" d="m0 0 2 4 1 13-1 59h20v1h-21l-1-1z" fill="#3C7ED5"/>
<path transform="translate(1238,942)" d="m0 0v3 3l3-3h2v-2l4-1-2 5h-2l-1 2-4 2-4 1h-2l1 4-4 2-5 5-5 2-3-3 7-7 8-7z" fill="#3B7CD2"/>
<path transform="translate(1307,595)" d="m0 0h1l3 28v37l-2 22h-1v-54z" fill="#3C7ED5"/>
<path transform="translate(493,1508)" d="m0 0h1l1 16 11 1-1-6 5-5 9 4-2 5 9 3-1 2-1-1-30-1-1-1z" fill="#3B7DD4"/>
<path transform="translate(1163,999)" d="m0 0 12 1 2 1-8 5-8 3-7 4h-5l6-7 5-3z" fill="#3B7DD4"/>
<path transform="translate(464,1090)" d="m0 0 2 1-5 6-4 4 8-1-3 3-16 8-4 1 2-5 16-13z" fill="#3976CB"/>
<path transform="translate(942,1540)" d="m0 0 9 2-2 4-7 6-6 1v-5l4-5-1-2z" fill="#3A74C7"/>
<path transform="translate(1308,330)" d="m0 0 6 2 13 9 12 11h-3l-9-6-8-6-2-3-4-1-5-3z" fill="#3C7ED5"/>
<path transform="translate(1218,891)" d="m0 0 3 3v5l-4 2-1-1-1 2-3 1-1 7-2 1v-3l-3 6-2 2-3-1 3-5h2l2-7 4-5 2-4h3z" fill="#3B7DD4"/>
<path transform="translate(1109,1041)" d="m0 0m-7 1h7l-4 2h-10v2l13 1v1h-12l-18-1-2-2 15-2z" fill="#3C7ED5"/>
<path transform="translate(560,1507)" d="m0 0h22v16l-1 3-32 1v-2l13-1h18v-6l-1-4 2-6h-21z" fill="#3C7ED5"/>
<path transform="translate(1176,949)" d="m0 0 1 3 1 4-16 16-2-1 11-14z" fill="#3C7ED5"/>
<path transform="translate(916,1559)" d="m0 0 4 1v3l-6 1v2l-6 5h-2l-1-6 3-3 7-2z" fill="#3A73C5"/>
<path transform="translate(1238,942)" d="m0 0v3 3l3-3h2v-2l4-1-2 5h-2l-1 2-4 2-4 1h-2l1 4-4 1 1-4-2-1 4-3 2 1-1-3z" fill="#3C7ED5"/>
<path transform="translate(885,1582)" d="m0 0h2l1 7 5 3 4 7v2l-4-1-6-7-2-4z" fill="#3A75C8"/>
<path transform="translate(1304,1586)" d="m0 0 5 2 4-1 1 4-4 4-3 1-4-3-1-4h2z" fill="#3C7ED5"/>
<path transform="translate(1221,1569)" d="m0 0 9 1 1 3 2 2h-17l2-5z" fill="#3A73C5"/>
<path transform="translate(748,1537)" d="m0 0 7 1v8l-2 2-4-1v-5l-2-4z" fill="#3C7ED5"/>
<path transform="translate(461,1095)" d="m0 0 5 1 7-1-4 3h-2v2l-8 2-5 1 5-6h2z" fill="#054FB1"/>
<path transform="translate(1229,962)" d="m0 0h5l2 1v4l-5 4-5 2 4-4-2-3-2-1 3-1z" fill="#3B7DD4"/>
<path transform="translate(1550,1151)" d="m0 0 1 4-3 5-6 1-3 3-2-1 10-10z" fill="#3976CB"/>
<path transform="translate(1194,1533)" d="m0 0 2 1-3 5-2 4-5-1 1-5z" fill="#3B7DD4"/>
<path transform="translate(1105,1043)" d="m0 0h6l-2 4h-8l-6-1v-2z" fill="#3A73C5"/>
<path transform="translate(1314,1571)" d="m0 0 1 4-1 6h2l2 4h-2l-2 3v-2l-2-1-3-4h2z" fill="#3C7ED5"/>
<path transform="translate(1234,1575)" d="m0 0 2 1v2h2v2h2v5l-6 1z" fill="#3A73C6"/>
<path transform="translate(902,1540)" d="m0 0 3 1 2 3v7l-6-5-1-5z" fill="#3A74C7"/>
<path transform="translate(1541,920)" d="m0 0h3l-2 9h-3l-4 2 2-5z" fill="#3C7ED5"/>
<path transform="translate(907,1512)" d="m0 0 2 3-1 2h-3l-2 4-4 2 1-4z" fill="#3A73C5"/>
<path transform="translate(1528,515)" d="m0 0 3 1 2 3-1 5h-3l-2-5z" fill="#3C7ED5"/>
<path transform="translate(523,1064)" d="m0 0h5l2 4-9 1v-4z" fill="#3C7ED5"/>
<path transform="translate(1169,1031)" d="m0 0h8v2l-7 1-5 2-2-2h2v-2z" fill="#3A76C9"/>
<path transform="translate(1167,1044)" d="m0 0h8l-1 3h-11l1-2z" fill="#3A73C5"/>
<path transform="translate(1077,322)" d="m0 0 6 5 2 2 2 4h-2v-2l-4-2-5-4z" fill="#3C7ED5"/>
<path transform="translate(1427,1593)" d="m0 0 5 1 1 4-6 2z" fill="#3A74C7"/>
</svg>
