<?xml version="1.0" encoding="UTF-8"?>
<svg version="1.1" viewBox="0 0 2048 2048" width="640" height="640" xmlns="http://www.w3.org/2000/svg">
<path transform="translate(0)" d="m0 0h2048v2048h-2048z" fill="#FDFDFD"/>
<path transform="translate(1690,723)" d="m0 0 4 2 7 7 8 7 14 14 8 7 30 30 6 5 5-2 20-11 17-7 5-1h10l1 5-4 8-12 12-13 10-14 10 4 16 22 82v6l-6 4-5-1-14-24-9-15-10-17-10-16-7-12-5 1-16 8-20 9-16 8-5 5-1 2v11l-5 5-6 2-6-10v-2l-48 23-29 13-27 11-13 5v1h44l1 5v167l7 1h101l1 2-1 53-1 1h-172l-1-221-10 3-24 9-5 2-1 33-94 1-19 2v28l107 1v51l-1 2-106 1v29l1 3h116l1 5v46l-1 5h-180l-1-1-1-19v-132l-54 14-5 10-30 72-16 39-7 16-1 1-14 1h-45l-5-2-6-15-12-29-24-57-13 2-44 8-6 1 2 6 11 24 16 36 9 21v3l-11 1h-56l-2-1-14-35-11-1h-74l-16 1-6 13-6 15-3 6-6 2h-132l-5-3-11-15-12-17-11-15-1-2h-27l-10 1-1 50-2 1h-60l-2-1-2-49-63-1-30-1v51l-1 1h-62l-1-1-1-55-71-10-35-7-32-8-33-11-21-9-10-5v-1h7l46 12 32 9 38 8 45 7 35 4 40 3 37 2 58 1h21l61-1 69-3 80-6 69-7 76-10 68-10 53-9 54-10 62-13 54-12 49-12 63-17 55-16 50-16 30-10 73-27 38-16 25-11 26-12 15-8 5-2-1-5-3-3-4-8v-4l7-4 6 1 7 3h7l8-4 11-10 20-15 13-8-2-5-14-24-19-32-15-24 1-4z" fill="#FA2F67"/>
<path transform="translate(1649,867)" d="m0 0 4 1-24 11-28 13-29 12-28 11-29 11-53 19-42 14-57 17-65 18-85 21-46 10-80 16-50 9-61 10-64 9-84 10-67 6-43 3-59 3-36 1h-108l-27-1-47-4-12-2v-97h-66l-1-1v-40l1-12 1-1h195l1 1v53h-67l1 97 9 1h56l27-1 1-143 1-7 23-1h93l21 3 18 6 12 7 11 9 7 8 8 14 5 15 1 7v24l-4 15-6 11-8 10-11 9-5 2v2l44-5 39-4 6-2 19-41 11-25 28-63 1-1 13-1h51l4 5 16 36 11 25 13 29 6 13 56-10 9-1-5-13-11-26-19-46-4-9v-2l23-1h48l5 12 22 58 5 14 50-10 3-10 19-49 5-13 1-1 15-1h56l-3 10-9 21-10 24 8-1 28-7h4v-39l1-7 6-1h149l10-2 53-18 51-19 27-11 29-12z" fill="#1F65F4"/>
<path transform="translate(653,986)" d="m0 0h48l10 3 5 3 6 10 2 10-1 11-5 10-6 5-5 2-7 1h-47l-1-4v-50z" fill="#FEFEFE"/>
<path transform="translate(822,1099)" d="m0 0h5l-2 6-16 36-9 20-4-4-6-9-11-14-12-16-8-11v-2l17-2z" fill="#FDFDFD"/>
<path transform="translate(932 1e3)" d="m0 0 3 1 11 27 8 20v3l-39 6h-5l3-10 16-39z" fill="#FEFEFE"/>
<path transform="translate(1175,1043)" d="m0 0h6l-2 9-11 32h-2l-7-20-5-16 16-4z" fill="#FDFDFD"/>
</svg>
