<?xml version="1.0" encoding="UTF-8"?>
<svg version="1.1" viewBox="0 0 2048 1152" width="2560" height="1440" xmlns="http://www.w3.org/2000/svg">
<path transform="translate(0)" d="m0 0h2048v1152h-2048z" fill="#FDFDFD"/>
<path transform="translate(1723,406)" d="m0 0 6 1 8 8 4 9 1 4v10l-5 20-3 16-1 7v10l4 8 4 5v-17l4-10 6-10 10-10 11-7h5v5l-10 14-4 7-1 4v31l4-1 8-7 11-12 7-11 4-10 1-4 4 1 5 10v15l-6 11-5 7-2 6v8l4-5 6-10 8-10 9-6 7-3 18-4 6-3 5-4 5-7 4-12h3l2 7v15l-4 8-6 7-13 10-9 5-14 10-7 8-3 7-1 10 8-7 7-7 6-4 5-2 6-1h13l10 5v3l-3 1-15 2-7 2-2 5-7 8-9 8-5 8-2 8 6-4 4-1h18l14-3 10-6 4-5 1-3h3l-1 9-4 7-7 7-10 7-16 8-1 4 5-3 8-2h10l11 2 13 5 13 8 6 2h16l10-3-1 5-6 7-8 5-7 2h-13l-28-7-8-1h-9l-7 3-8 5-1 4 1 1 22 1 12 5 7 7 5 9-1 3-11-6-1-1h-24l-8-1h-11l-6 3-4 4h6l9 6 6 8 3 5h-70l5-4 9-9 5-8 5-14 2-13v-14l-3-15-5-16-7-13-7-9-2-4-16-8-22-6h-21l-15 4-15 8-13 11-9 14-5 15-3 14v23l4 15 6 10 13 16 2 3h-63l3-5 13-10 5-9-6 2-35 1-11 4-9 6h-2v-7l3-7 5-6 6-4 7-2 12-1 12-5 7-6h-9l-19 8h-12l-9-4-16-12-9-5-4-1h-18l-5 2h-3l2-4 7-6 8-5 7-2h7l15 4 15 5 11 1 9-2 17-9-7-2h-9l-12-2-10-7-4-7-2-5 1-4 4 2 9 6h7l7-2h8l4 1h14l8-3-9-4-9-6-6-7-3-6-8-7-6-2h-9l-1-2 4-5 5-2h9l8 4 5 6 6 4 3 1h14l-2-5-9-5-11-7-7-7-6-9-2-7-2-18-4-10-6-5-9-4 1-2h17l9 5 7 9 10 16 8 13 6 7 9 6 8 1 1-5-6-8-6-7-3-8-1-10 2-7 2-2 4 1 3 11 5 5 11 6 6 8 6 14 6-1 1-1v-6l-2-5-1-30-5-13-2-4 1-4 4 1 6 4 7 7 4 9 5 17 6 3-6-14-1-11 3-11 6-12 9-15 3-6v-11z" fill="#D7AC61"/>
<path transform="translate(684,508)" d="m0 0h18l11 3 9 5 7 8 3 9v11l-4 11-8 9-12 8h-2v2l4 2 10 10 8 7 3 2 3-11 3-9 9 2 15 5-3 13-8 16 2 4 10 10 2 1-2 5-11 12-2 3-4-2-7-7-5-4-4 1-12 7-13 4-5 1h-24l-15-4-12-7-8-9-4-10v-14l4-11 6-8 9-8 8-5h2l-8-10-4-8-2-9 1-10 4-9 7-8 12-6z" fill="#3771C1"/>
<path transform="translate(289,539)" d="m0 0h16l16 4 11 6 10 9 7 11 4 12 1 7v9l-3 14-6 12-9 10-13 8-14 4-16 1-16-3-12-5-10-8-6-7-7-14-2-10v-13l3-13 5-10 9-10 8-6 11-5z" fill="#3771C1"/>
<path transform="translate(1312,539)" d="m0 0h14l16 4 11 6 10 10 7 13 3 13v13l-1 3-77 1 5 10 9 6 5 2 11 1 12-2 8-4 4-3h2l14 16-2 4-9 7-13 5-14 2-17-1-14-4-11-6-10-9-6-9-4-11-1-6v-16l3-12 6-11 8-9 11-7 10-4z" fill="#3771C1"/>
<path transform="translate(1071,539)" d="m0 0h17l15 3 11 6 7 6 7 14 2 11v65h-28l-1-11-7 7-12 5-15 1-12-2-9-4-8-6-5-9-2-11 2-11 6-9 5-4 8-4 8-2 9-1h31l-4-12-5-4-8-3h-15l-13 4-7 4-3-1-9-17 1-4 12-6 15-4z" fill="#3771C1"/>
<path transform="translate(373,541)" d="m0 0h30l1 61 3 9 5 5 4 2 10 1 8-2 6-4 4-5 3-12 1-55h30v103h-29l-1-10-10 7-11 4-12 1-13-2-10-4-10-9-5-8-3-9-1-7z" fill="#3771C1"/>
<path transform="translate(824,510)" d="m0 0h117v25h-43v109h-31v-109h-43z" fill="#3771C1"/>
<path transform="translate(116,510)" d="m0 0h117v25h-43v109h-31v-109h-43z" fill="#3771C1"/>
<path transform="translate(1142,541)" d="m0 0h31l27 66v3h2l1-5 19-45 8-19h29l-3 9-38 90-2 4h-31l-5-10-17-41-19-45z" fill="#3771C1"/>
<path transform="translate(1421,501)" d="m0 0 2 1v142h-30v-142z" fill="#3771C1"/>
<path transform="translate(562,539)" d="m0 0h8v27l-4 1-12 1-10 5-4 5-3 7-1 7-1 52h-30v-103h29l1 11 7-6 8-4z" fill="#3771C1"/>
<path transform="translate(1012,539)" d="m0 0h7l1 1v26l-4 1-12 1-9 4-5 6-3 7-1 8-1 51h-30v-103h29l1 11 7-6 8-4z" fill="#3771C1"/>
<path transform="translate(290,564)" d="m0 0h14l10 5 6 7 3 9v15l-4 10-4 5-9 5-4 1h-10l-9-3-6-5-4-6-2-6-1-9 2-12 6-9 5-4z" fill="#FEFEFE"/>
<path transform="translate(680,585)" d="m0 0 4 1 10 10 8 7 12 12-8 5-12 3h-10l-8-2-6-4-4-5-1-9 3-8 9-8z" fill="#FEFEFE"/>
<path transform="translate(1312,562)" d="m0 0h14l10 5 6 7 2 5v4h-50l1-6 5-8 9-6z" fill="#FEFEFE"/>
<path transform="translate(1072,601)" d="m0 0h28v11l-4 6-6 5-5 2h-15l-6-4-3-4v-8l3-5z" fill="#FEFEFE"/>
<path transform="translate(690,528)" d="m0 0h7l6 3 3 3 1 6-3 7-8 7-5 3-4-1-6-7-2-4v-9l5-6z" fill="#FEFEFE"/>
</svg>
